<?xml version="1.0" encoding="UTF-8"?>
<svg width="103px" height="31px" viewBox="0 0 103 31" version="1.1" xmlns="http://www.w3.org/2000/svg" xmlns:xlink="http://www.w3.org/1999/xlink">
    <!-- Generator: Sketch 42 (36781) - http://www.bohemiancoding.com/sketch -->
    <title>senol-logo</title>
    <desc>Created with Sketch.</desc>
    <defs>
        <polygon id="path-1" points="23.5425 31 0.9415 31 0.9415 0.3803 23.5425 0.3803 23.5425 31"></polygon>
    </defs>
    <g id="Page-1" stroke="none" stroke-width="1" fill="none" fill-rule="evenodd">
        <g id="Desktop-Landscape" transform="translate(-609.000000, -221.000000)">
            <g id="senol-logo" transform="translate(609.000000, 220.000000)">
                <g id="Group-7" transform="translate(26.000000, 8.620000)" fill="#8CC542">
                    <path d="M7.6754,17.2987 C8.5104,18.1477 9.7124,18.5707 11.2794,18.5707 C12.4014,18.5707 13.3684,18.2777 14.1774,17.6887 C14.9874,17.1007 15.4834,16.4777 15.6664,15.8207 L20.5624,15.8207 C19.7784,18.3657 18.5774,20.1867 16.9594,21.2807 C15.3394,22.3757 13.3804,22.9237 11.0834,22.9237 C9.4904,22.9237 8.0534,22.6557 6.7744,22.1227 C5.4944,21.5887 4.4104,20.8287 3.5234,19.8437 C2.6354,18.8587 1.9494,17.6817 1.4664,16.3127 C0.9834,14.9447 0.7424,13.4397 0.7424,11.7977 C0.7424,10.2107 0.9894,8.7327 1.4864,7.3637 C1.9824,5.9957 2.6864,4.8117 3.6014,3.8127 C4.5154,2.8137 5.6054,2.0277 6.8724,1.4527 C8.1384,0.8777 9.5424,0.5907 11.0834,0.5907 C12.8064,0.5907 14.3084,0.9387 15.5884,1.6377 C16.8674,2.3347 17.9184,3.2727 18.7414,4.4497 C19.5644,5.6267 20.1574,6.9677 20.5234,8.4727 C20.8894,9.9777 21.0194,11.5507 20.9154,13.1937 L6.3044,13.1937 C6.3824,15.0817 6.8394,16.4507 7.6754,17.2987 M13.9624,6.1327 C13.2964,5.3667 12.2844,4.9827 10.9264,4.9827 C10.0384,4.9827 9.3004,5.1407 8.7134,5.4547 C8.1254,5.7697 7.6554,6.1597 7.3034,6.6247 C6.9504,7.0907 6.7024,7.5837 6.5594,8.1027 C6.4154,8.6227 6.3294,9.0887 6.3044,9.4977 L15.3534,9.4977 C15.0914,8.0207 14.6284,6.8987 13.9624,6.1327" id="Fill-1"></path>
                    <path d="M29.5607,1.165 L29.5607,4.12 L29.6787,4.12 C30.3837,2.889 31.2967,1.994 32.4207,1.432 C33.5427,0.871 34.6917,0.59 35.8677,0.59 C37.3567,0.59 38.5767,0.802 39.5297,1.227 C40.4837,1.651 41.2337,2.24 41.7827,2.992 C42.3307,3.745 42.7157,4.662 42.9377,5.742 C43.1597,6.824 43.2707,8.021 43.2707,9.335 L43.2707,22.389 L37.7087,22.389 L37.7087,10.402 C37.7087,8.651 37.4477,7.344 36.9247,6.481 C36.4027,5.619 35.4757,5.188 34.1437,5.188 C32.6287,5.188 31.5317,5.66 30.8537,6.604 C30.1737,7.549 29.8357,9.103 29.8357,11.264 L29.8357,22.389 L24.2727,22.389 L24.2727,1.165 L29.5607,1.165 Z" id="Fill-3"></path>
                    <path d="M47.4015,7.1787 C47.8975,5.7977 48.6025,4.6207 49.5165,3.6487 C50.4315,2.6777 51.5275,1.9247 52.8075,1.3917 C54.0865,0.8567 55.5235,0.5907 57.1165,0.5907 C58.7085,0.5907 60.1525,0.8567 61.4445,1.3917 C62.7365,1.9247 63.8405,2.6777 64.7545,3.6487 C65.6685,4.6207 66.3735,5.7977 66.8705,7.1787 C67.3655,8.5617 67.6145,10.1007 67.6145,11.7977 C67.6145,13.4947 67.3655,15.0277 66.8705,16.3957 C66.3735,17.7647 65.6685,18.9347 64.7545,19.9057 C63.8405,20.8777 62.7365,21.6237 61.4445,22.1427 C60.1525,22.6627 58.7085,22.9237 57.1165,22.9237 C55.5235,22.9237 54.0865,22.6627 52.8075,22.1427 C51.5275,21.6237 50.4315,20.8777 49.5165,19.9057 C48.6025,18.9347 47.8975,17.7647 47.4015,16.3957 C46.9055,15.0277 46.6575,13.4947 46.6575,11.7977 C46.6575,10.1007 46.9055,8.5617 47.4015,7.1787 M52.4545,14.2817 C52.6115,15.0887 52.8785,15.8147 53.2585,16.4577 C53.6365,17.1007 54.1395,17.6137 54.7655,17.9967 C55.3925,18.3797 56.1765,18.5707 57.1165,18.5707 C58.0565,18.5707 58.8455,18.3797 59.4865,17.9967 C60.1265,17.6137 60.6355,17.1007 61.0145,16.4577 C61.3925,15.8147 61.6595,15.0887 61.8165,14.2817 C61.9735,13.4747 62.0515,12.6457 62.0515,11.7977 C62.0515,10.9497 61.9735,10.1147 61.8165,9.2937 C61.6595,8.4727 61.3925,7.7477 61.0145,7.1177 C60.6355,6.4877 60.1265,5.9757 59.4865,5.5777 C58.8455,5.1817 58.0565,4.9827 57.1165,4.9827 C56.1765,4.9827 55.3925,5.1817 54.7655,5.5777 C54.1395,5.9757 53.6365,6.4877 53.2585,7.1177 C52.8785,7.7477 52.6115,8.4727 52.4545,9.2937 C52.2985,10.1147 52.2195,10.9497 52.2195,11.7977 C52.2195,12.6457 52.2985,13.4747 52.4545,14.2817" id="Fill-5"></path>
                </g>
                <polygon id="Fill-8" fill="#8CC542" points="96.954 31.01 102.516 31.01 102.516 1.698 96.954 1.698"></polygon>
                <g id="Group-14" transform="translate(0.000000, 0.620000)">
                    <path d="M10.408,25.9121 C10.201,25.8721 9.997,25.8251 9.794,25.7711 C9.037,25.5651 8.377,25.2511 7.816,24.8261 C7.254,24.4021 6.804,23.8491 6.465,23.1641 C6.125,22.4801 5.955,21.6451 5.955,20.6601 L0.002,20.6601 C-0.025,22.4661 0.288,24.0261 0.941,25.3401 C1.594,26.6541 2.475,27.7351 3.586,28.5831 C4.695,29.4321 5.975,30.0541 7.424,30.4501 C8.398,30.7171 9.393,30.8921 10.408,30.9791 L10.408,25.9121 Z" id="Fill-9" fill="#8CC542"></path>
                    <g id="Group-13">
                        <mask id="mask-2" fill="white">
                            <use xlink:href="#path-1"></use>
                        </mask>
                        <g id="Clip-12"></g>
                        <path d="M22.5445,17.6423 C21.8785,16.5893 21.0885,15.7473 20.1745,15.1173 C19.2595,14.4883 18.3395,14.0303 17.4135,13.7423 C16.4855,13.4553 15.7615,13.2563 15.2385,13.1473 C13.4895,12.6823 12.0725,12.2993 10.9885,11.9973 C9.9055,11.6973 9.0565,11.3963 8.4425,11.0943 C7.8285,10.7933 7.4175,10.4643 7.2085,10.1103 C6.9995,9.7533 6.8955,9.2883 6.8955,8.7133 C6.8955,8.0843 7.0255,7.5633 7.2875,7.1533 C7.5475,6.7423 7.8815,6.4013 8.2865,6.1273 C8.6905,5.8543 9.1415,5.6613 9.6375,5.5533 C10.1335,5.4433 10.6295,5.3883 11.1255,5.3883 C11.8835,5.3883 12.5815,5.4563 13.2215,5.5933 C13.8615,5.7303 14.4295,5.9633 14.9255,6.2913 C15.4215,6.6193 15.8195,7.0713 16.1205,7.6463 C16.4205,8.2213 16.5965,8.9463 16.6495,9.8213 L22.6035,9.8213 C22.6035,8.1253 22.2965,6.6813 21.6825,5.4913 C21.0685,4.3003 20.2395,3.3213 19.1955,2.5553 C18.1505,1.7893 16.9555,1.2353 15.6115,0.8933 C14.2655,0.5513 12.8625,0.3803 11.4005,0.3803 C10.1465,0.3803 8.8935,0.5583 7.6395,0.9133 C6.3865,1.2693 5.2625,1.8163 4.2705,2.5553 C3.2785,3.2943 2.4755,4.2183 1.8615,5.3263 C1.2485,6.4353 0.9415,7.7423 0.9415,9.2473 C0.9415,10.5883 1.1825,11.7313 1.6665,12.6753 C2.1495,13.6193 2.7825,14.4063 3.5665,15.0353 C4.3495,15.6653 5.2365,16.1783 6.2295,16.5753 C7.2215,16.9723 8.2405,17.3073 9.2855,17.5813 C10.3035,17.8823 11.3085,18.1563 12.3015,18.4023 C13.2935,18.6493 14.1815,18.9353 14.9645,19.2633 C15.7485,19.5923 16.3815,20.0033 16.8645,20.4963 C17.3475,20.9883 17.5895,21.6313 17.5895,22.4253 C17.5895,23.1643 17.4065,23.7733 17.0405,24.2513 C16.6745,24.7313 16.2185,25.1073 15.6695,25.3803 C15.1215,25.6543 14.5335,25.8393 13.9065,25.9353 C13.7085,25.9653 13.5165,25.9893 13.3255,26.0103 L13.3255,31.0003 C14.6575,30.9113 15.8645,30.6943 16.9425,30.3483 C18.3925,29.8833 19.6065,29.2333 20.5855,28.3983 C21.5655,27.5633 22.3025,26.5713 22.7985,25.4223 C23.2945,24.2723 23.5425,23.0273 23.5425,21.6863 C23.5425,20.0443 23.2105,18.6963 22.5445,17.6423" id="Fill-11" fill="#8CC542" mask="url(#mask-2)"></path>
                    </g>
                </g>
            </g>
        </g>
    </g>
</svg>