<?xml version="1.0" encoding="UTF-8"?>
<svg width="31px" height="40px" viewBox="0 0 31 40" version="1.1" xmlns="http://www.w3.org/2000/svg" xmlns:xlink="http://www.w3.org/1999/xlink">
    <!-- Generator: Sketch 42 (36781) - http://www.bohemiancoding.com/sketch -->
    <title>google-pin@3x</title>
    <desc>Created with Sketch.</desc>
    <defs></defs>
    <g id="Page-1" stroke="none" stroke-width="1" fill="none" fill-rule="evenodd">
        <g id="Desktop-Landscape" transform="translate(-378.000000, -416.000000)" fill="#8CC542">
            <g id="google-pin" transform="translate(378.000000, 416.000000)">
                <path d="M13.3475,33.002 C13.0825,32.951 12.8195,32.891 12.5605,32.821 C11.5885,32.557 10.7435,32.154 10.0235,31.61 C9.3035,31.066 8.7255,30.356 8.2905,29.478 C7.8545,28.601 7.6375,27.53 7.6375,26.266 L0.0015,26.266 C-0.0325,28.583 0.3695,30.584 1.2075,32.268 C2.0435,33.953 3.1745,35.34 4.5985,36.427 C6.0215,37.516 7.6625,38.314 9.5215,38.822 C10.7695,39.164 12.0455,39.389 13.3475,39.501 L13.3475,33.002 Z M30.1925,27.582 C30.1925,29.302 29.8745,30.899 29.2385,32.373 C28.6015,33.847 27.6555,35.12 26.4005,36.19 C25.1435,37.261 23.5865,38.094 21.7275,38.691 C20.3445,39.135 18.7975,39.413 17.0895,39.527 L17.0895,33.127 C17.3335,33.101 17.5805,33.071 17.8345,33.031 C18.6385,32.909 19.3925,32.672 20.0955,32.32 C20.7985,31.97 21.3845,31.487 21.8535,30.873 C22.3225,30.259 22.5565,29.478 22.5565,28.53 C22.5565,27.512 22.2465,26.687 21.6275,26.056 C21.0075,25.424 20.1955,24.897 19.1905,24.476 C18.1865,24.055 17.0475,23.687 15.7755,23.371 C14.5025,23.055 13.2135,22.705 11.9075,22.318 C10.5675,21.967 9.2615,21.537 7.9895,21.028 C6.7155,20.52 5.5775,19.861 4.5735,19.053 C3.5685,18.247 2.7565,17.237 2.1365,16.027 C1.5165,14.816 1.2075,13.35 1.2075,11.63 C1.2075,9.701 1.6005,8.024 2.3875,6.603 C3.1745,5.181 4.2035,3.996 5.4775,3.049 C6.7495,2.101 8.1895,1.4 9.7975,0.943 C11.4045,0.488 13.0125,0.259 14.6205,0.259 C16.4955,0.259 18.2945,0.479 20.0205,0.917 C21.7445,1.356 23.2775,2.066 24.6165,3.049 C25.9555,4.031 27.0195,5.286 27.8065,6.814 C28.5935,8.34 28.9865,10.191 28.9865,12.367 L21.3515,12.367 C21.2835,11.245 21.0575,10.314 20.6735,9.577 C20.2875,8.84 19.7765,8.261 19.1415,7.84 C18.5045,7.419 17.7755,7.12 16.9565,6.945 C16.1345,6.769 15.2395,6.682 14.2685,6.682 C13.6315,6.682 12.9955,6.752 12.3595,6.893 C11.7225,7.032 11.1455,7.279 10.6265,7.629 C10.1075,7.981 9.6795,8.418 9.3455,8.945 C9.0095,9.471 8.8425,10.139 8.8425,10.946 C8.8425,11.683 8.9765,12.28 9.2445,12.737 C9.5125,13.192 10.0395,13.613 10.8275,13.999 C11.6135,14.386 12.7025,14.772 14.0925,15.157 C15.4815,15.544 17.2985,16.035 19.5425,16.632 C20.2125,16.772 21.1415,17.026 22.3305,17.395 C23.5185,17.764 24.6995,18.351 25.8725,19.158 C27.0445,19.966 28.0575,21.046 28.9115,22.396 C29.7655,23.748 30.1925,25.477 30.1925,27.582 L30.1925,27.582 Z" id="Fill-6"></path>
            </g>
        </g>
    </g>
</svg>